<svg width="31" height="31" viewBox="0 0 31 31" fill="none" xmlns="http://www.w3.org/2000/svg">
<path d="M15.1489 17.8532C13.7287 17.8532 12.4979 16.717 12.4979 15.2021C12.4979 13.7819 13.634 12.551 15.1489 12.551C16.5691 12.551 17.8 13.6872 17.8 15.2021C17.8 16.6223 16.5691 17.8532 15.1489 17.8532Z" fill="#BEA8A7"/>
<path fill-rule="evenodd" clip-rule="evenodd" d="M18.3681 8.7638L11.9298 8.7638C11.1723 8.85848 10.7936 8.95316 10.5096 9.04784C10.1309 9.14252 9.84681 9.33188 9.56277 9.61592C9.33801 9.84068 9.23181 10.0654 9.10346 10.3371C9.06963 10.4087 9.03417 10.4838 8.99468 10.5627C8.98003 10.6067 8.96312 10.6529 8.94499 10.7024C8.84594 10.973 8.71064 11.3427 8.71064 11.9829L8.71064 18.4212C8.80532 19.1787 8.9 19.5574 8.99468 19.8415C9.08936 20.2202 9.27872 20.5042 9.56277 20.7883C9.78753 21.013 10.0123 21.1192 10.284 21.2476C10.3556 21.2814 10.4305 21.3168 10.5096 21.3563C10.5535 21.371 10.5997 21.3879 10.6492 21.406C10.9199 21.5051 11.2895 21.6404 11.9298 21.6404H18.3681C19.1255 21.5457 19.5043 21.451 19.7883 21.3563C20.167 21.2617 20.4511 21.0723 20.7351 20.7883C20.9599 20.5635 21.0661 20.3387 21.1944 20.0671C21.2283 19.9954 21.2637 19.9205 21.3032 19.8415C21.3178 19.7975 21.3348 19.7513 21.3529 19.7018C21.4519 19.4312 21.5872 19.0615 21.5872 18.4212V11.9829C21.4926 11.2255 21.3979 10.8468 21.3032 10.5627C21.2085 10.184 21.0191 9.89997 20.7351 9.61592C20.5103 9.39117 20.2856 9.28497 20.0139 9.15662C19.9424 9.12281 19.8672 9.08729 19.7883 9.04784C19.7444 9.03319 19.6981 9.01628 19.6486 8.99815C19.378 8.8991 19.0084 8.7638 18.3681 8.7638ZM15.1489 11.1308C12.8766 11.1308 11.0777 12.9298 11.0777 15.2021C11.0777 17.4744 12.8766 19.2734 15.1489 19.2734C17.4213 19.2734 19.2202 17.4744 19.2202 15.2021C19.2202 12.9298 17.4213 11.1308 15.1489 11.1308ZM20.2617 11.0361C20.2617 11.559 19.8378 11.9829 19.3149 11.9829C18.792 11.9829 18.3681 11.559 18.3681 11.0361C18.3681 10.5132 18.792 10.0893 19.3149 10.0893C19.8378 10.0893 20.2617 10.5132 20.2617 11.0361Z" fill="#BEA8A7"/>
<path fill-rule="evenodd" clip-rule="evenodd" d="M0 4.7872C0 2.17266 2.1195 0.0531616 4.73404 0.0531616L25.5638 0.0531616C28.1784 0.0531616 30.2979 2.17266 30.2979 4.7872L30.2979 25.617C30.2979 28.2315 28.1784 30.351 25.5638 30.351L4.73404 30.351C2.1195 30.351 0 28.2315 0 25.617L0 4.7872ZM11.9298 7.34358L18.3681 7.34358C19.2202 7.43826 19.7883 7.53295 20.2617 7.72231C20.8298 8.00635 21.2085 8.19571 21.6819 8.66912C22.1553 9.14252 22.4394 9.61592 22.6287 10.0893C22.8181 10.5627 23.0074 11.1308 23.0074 11.9829V18.4212C22.9128 19.2734 22.8181 19.8415 22.6287 20.3149C22.3447 20.8829 22.1553 21.2617 21.6819 21.7351C21.2085 22.2085 20.7351 22.4925 20.2617 22.6819C19.7883 22.8712 19.2202 23.0606 18.3681 23.0606H11.9298C11.0777 22.9659 10.5096 22.8712 10.0362 22.6819C9.46809 22.3978 9.08936 22.2085 8.61596 21.7351C8.14255 21.2617 7.85851 20.7883 7.66915 20.3149C7.47979 19.8415 7.29043 19.2734 7.29043 18.4212L7.29043 11.9829C7.38511 11.1308 7.47979 10.5627 7.66915 10.0893C7.95319 9.52124 8.14255 9.14252 8.61596 8.66912C9.08936 8.19571 9.56277 7.91167 10.0362 7.72231C10.5096 7.53295 11.0777 7.34358 11.9298 7.34358Z" fill="#BEA8A7"/>
</svg>
